<svg xmlns="http://www.w3.org/2000/svg" width="130" height="56" viewBox="0 0 130 56" fill="none">
    <path d="M90.1348 17.1553H88.2671C88.2671 16.7337 88.2384 16.3378 88.2731 15.948C88.3411 15.206 88.0434 14.7391 87.3891 14.3658C81.3401 10.9114 75.3062 7.43283 69.2678 3.95878C68.2433 3.36944 67.2172 2.78162 66.2048 2.17264C65.6744 1.8538 65.1969 1.86135 64.6544 2.17566C57.5793 6.26776 50.4998 10.3508 43.4126 14.4202C42.8384 14.7497 42.5679 15.1622 42.6178 15.8195C42.6495 16.2411 42.6238 16.6673 42.6238 17.1417H40.7319C40.7319 16.433 40.6684 15.7304 40.747 15.0428C40.8528 14.118 41.3666 13.432 42.1917 12.9575C47.5984 9.85062 52.9992 6.73168 58.4029 3.61576C60.2117 2.57309 62.025 1.54251 63.8263 0.486235C64.9067 -0.146922 65.96 -0.140878 67.0389 0.480191C74.25 4.63727 81.4625 8.78981 88.6751 12.9439C89.5409 13.4425 90.0744 14.1694 90.1288 15.1833C90.1635 15.8286 90.1348 16.4769 90.1348 17.1584V17.1553Z" fill="#A9A29D"/>
    <path d="M88.234 38.8958H90.0172C90.3844 41.3694 89.9008 42.3895 88.2416 43.3339C81.159 47.3595 74.1127 51.4501 67.0558 55.5226C65.9224 56.1769 64.8314 56.1225 63.7056 55.4697C57.6989 51.9926 51.6817 48.5352 45.6674 45.0702C44.7305 44.5307 43.8239 43.9293 42.8522 43.4623C41.2459 42.6902 40.5115 41.4813 40.7034 39.7057C40.7306 39.4609 40.7064 39.2101 40.7064 38.9124H42.5817C42.5953 39.1678 42.6527 39.4171 42.6165 39.6543C42.4533 40.7227 42.9127 41.3332 43.8511 41.8681C50.778 45.8121 57.6778 49.803 64.5745 53.8014C65.2031 54.1656 65.6957 54.1384 66.3153 53.7787C73.277 49.7441 80.2493 45.726 87.2337 41.7306C87.9575 41.3166 88.3338 40.827 88.2401 39.9868C88.2023 39.6453 88.234 39.2962 88.234 38.8973V38.8958Z" fill="#A9A29D"/>
    <path d="M87.5677 36.209V19.9313C87.6282 19.8844 87.6659 19.827 87.7037 19.827C90.2424 19.8572 92.8173 19.6275 95.3092 19.9887C99.0446 20.5282 101.361 23.4582 101.543 27.242C101.672 29.9726 101.097 32.4524 98.9706 34.3609C97.7285 35.4776 96.2279 36.1093 94.5899 36.1833C92.2809 36.2861 89.9643 36.209 87.5677 36.209ZM89.6198 34.4773C91.208 34.4773 92.6889 34.5332 94.1637 34.4637C96.1493 34.3715 97.6831 33.424 98.5868 31.65C99.6687 29.5269 99.699 27.2874 98.8981 25.0751C98.1259 22.9459 96.5694 21.7114 94.2771 21.5497C93.0017 21.4605 91.7157 21.5179 90.4373 21.4469C89.7452 21.4076 89.6017 21.6751 89.6062 22.3143C89.6334 25.9108 89.6198 29.5072 89.6198 33.1037V34.4758V34.4773Z" fill="#A9A29D"/>
    <path d="M64.8465 36.4538C60.697 36.6034 57.3196 33.6476 56.8466 29.5087C56.549 26.9096 56.8799 24.451 58.5754 22.3883C60.8012 19.6819 63.7736 19.0442 67.0285 19.9116C70.2487 20.7699 71.988 23.0713 72.5426 26.3097C72.8418 28.0565 72.7134 29.7777 72.1089 31.4354C70.9635 34.5755 68.3991 36.3253 64.848 36.4523L64.8465 36.4538ZM70.4996 27.6047C70.427 27.1725 70.3545 26.3399 70.143 25.545C69.5007 23.1378 67.5287 21.5466 65.1351 21.4363C62.3169 21.3064 60.1907 22.5969 59.3052 25.0449C58.7658 26.5363 58.6947 28.0807 58.9395 29.6553C59.6059 33.9348 64.4717 36.0503 68.0259 33.563C69.948 32.2181 70.4512 30.2053 70.4996 27.6032V27.6047Z" fill="#A9A29D"/>
    <path d="M37.219 28.1049C37.151 31.3976 36.0282 34.1478 32.9123 35.6453C28.2248 37.8969 21.6847 35.6061 21.378 28.7743C21.3205 27.4929 21.4535 26.1404 21.8162 24.9134C22.8634 21.3729 26.1078 19.3389 29.7964 19.6109C32.7552 19.8285 34.9523 21.1537 36.3199 23.7861C37.018 25.128 37.2538 26.5907 37.219 28.1049ZM29.269 21.4242C26.7424 21.4152 24.7251 22.7525 23.9076 25.0645C23.223 26.9987 23.2079 28.9707 23.8894 30.911C24.7054 33.2412 26.6986 34.58 29.2343 34.5755C31.7548 34.5725 33.7706 33.2578 34.5866 31.0183C35.2243 29.2684 35.2697 27.4747 34.7906 25.6735C34.0819 23.0139 32.0283 21.4348 29.2705 21.4242H29.269Z" fill="#A9A29D"/>
    <path d="M124.826 28.9602C126.577 31.3779 128.285 33.7323 130 36.1017C128.518 36.5505 127.742 36.3027 126.89 35.118C125.819 33.6265 124.75 32.132 123.687 30.636C122.7 29.2503 122.074 29.0191 120.297 29.4467V36.1878H118.174V19.6849C120.522 19.7937 122.846 19.7469 125.122 20.0536C127.21 20.3347 128.462 21.8504 128.604 23.6833C128.791 26.1087 127.786 27.8026 125.648 28.6595C125.376 28.7683 125.098 28.8635 124.826 28.9632V28.9602ZM120.253 21.3547C120.253 23.4718 120.247 25.403 120.267 27.3342C120.267 27.4808 120.453 27.7513 120.557 27.7528C122.178 27.7815 123.838 28.0203 125.303 27.0305C126.33 26.3369 126.83 24.9784 126.509 23.6169C126.23 22.4337 125.403 21.7401 124.244 21.592C122.961 21.4288 121.659 21.4303 120.253 21.3547Z" fill="#A9A29D"/>
    <path d="M53.4408 36.203H51.3977C51.3977 35.872 51.3977 35.5774 51.3977 35.2842C51.3977 33.3213 51.3872 31.3568 51.4053 29.3939C51.4098 28.8952 51.2859 28.6746 50.7298 28.6806C48.1866 28.7063 45.6449 28.7033 43.1017 28.6821C42.591 28.6776 42.4625 28.8741 42.4671 29.3485C42.4867 31.3372 42.4746 33.3258 42.4746 35.3144C42.4746 35.5879 42.4746 35.8614 42.4746 36.1894H40.4316V19.8527H42.4368C42.4489 20.0914 42.4716 20.3544 42.4731 20.6188C42.4761 22.5576 42.4897 24.4964 42.4655 26.4336C42.458 26.964 42.5743 27.2028 43.1697 27.1967C45.6872 27.1695 48.2048 27.174 50.7223 27.1937C51.2648 27.1982 51.4113 26.9852 51.4068 26.4774C51.3872 24.59 51.3993 22.7011 51.3993 20.8138C51.3993 20.5146 51.3993 20.2154 51.3993 19.8497H53.4423V36.203H53.4408Z" fill="#A9A29D"/>
    <path d="M114.656 19.7711V21.5089H106.897V27.0592H113.15V28.7683H106.894V34.4456H114.627V36.1773H104.718C104.699 35.9839 104.663 35.7678 104.663 35.5502C104.66 30.5151 104.663 25.4816 104.656 20.4466C104.656 19.9948 104.674 19.6865 105.28 19.6925C108.251 19.7182 111.22 19.7031 114.191 19.7076C114.336 19.7076 114.482 19.7469 114.656 19.7726V19.7711Z" fill="#A9A29D"/>
    <path d="M46.648 16.965C47.0545 16.6477 47.4308 16.2759 47.8735 16.0205C53.1836 12.95 58.5042 9.90052 63.8188 6.839C64.8932 6.22096 65.9374 6.1998 67.0269 6.82994C72.4246 9.94888 77.8344 13.0467 83.2306 16.1656C83.5978 16.3772 83.8925 16.7126 84.169 17.0798C82.7289 17.1176 81.387 17.3488 80.018 16.5253C75.539 13.8294 70.9634 11.2953 66.4466 8.66443C65.7304 8.24736 65.1773 8.22167 64.4399 8.65234C59.9911 11.253 55.5001 13.7796 51.0529 16.3847C50.0616 16.965 49.0884 17.3397 47.9355 17.1992C47.5456 17.1524 47.1452 17.1917 46.7508 17.1917C46.716 17.1161 46.6812 17.0405 46.6465 16.965H46.648Z" fill="#A9A29D"/>
    <path d="M46.6514 39.0363C48.1913 38.8867 49.5754 38.7522 50.9793 39.5954C55.4371 42.2746 59.9946 44.7891 64.4947 47.3988C65.1686 47.7902 65.7005 47.7826 66.3685 47.3943C71.0182 44.6924 75.6905 42.0298 80.3433 39.3325C80.9296 38.9925 81.5038 38.7885 82.1883 38.8368C82.8139 38.8807 83.4441 38.8459 84.1966 38.9985C83.9322 39.2524 83.707 39.5712 83.3987 39.7495C77.9376 42.9078 72.4688 46.0509 66.9986 49.194C65.9212 49.8136 64.8558 49.7788 63.7814 49.1593C58.3807 46.0464 52.9739 42.9471 47.5777 39.8281C47.2317 39.6287 46.9582 39.3023 46.6514 39.0348V39.0363Z" fill="#A9A29D"/>
    <path d="M19.0855 34.0179C17.9597 35.3749 16.4848 36.1093 14.7546 36.3223C11.8593 36.6759 9.29647 36.0564 7.39398 33.6522C4.74348 30.3036 4.57272 23.085 9.8314 20.4541C12.7856 18.9762 15.7565 19.0714 18.5309 21.057C18.7289 21.1991 18.8951 21.3865 19.0961 21.5708C18.957 21.802 18.8482 21.9955 18.7258 22.1813C18.2136 22.955 18.1259 22.9656 17.3704 22.4548C15.3953 21.1175 13.2798 20.9331 11.134 21.9018C8.99727 22.8643 8.07095 24.7155 7.85033 26.9595C7.63273 29.1657 7.96669 31.242 9.57149 32.9133C11.4075 34.8248 14.8347 35.1331 16.9896 33.5026C18.0473 32.7032 18.2453 32.7742 19.0885 34.0194L19.0855 34.0179Z" fill="#A9A29D"/>
    <path d="M75.8052 19.7061C76.3931 19.7061 76.9643 19.6971 77.534 19.7092C78.0628 19.7213 77.9314 20.1353 77.9329 20.4345C77.9404 23.0004 77.9374 25.5663 77.9374 28.1336C77.9374 29.9455 77.9374 31.7573 77.9374 33.5676C77.9374 33.8366 77.9374 34.1041 77.9374 34.4607H84.9097V36.1939H75.8052V19.7077V19.7061Z" fill="#A9A29D"/>
    <path d="M2.07023 36.218H0V19.8285H2.07023V36.218Z" fill="#A9A29D"/>
    <path d="M57.0158 17.0465C58.6599 16.096 60.3025 15.1456 61.9465 14.1966C62.6432 13.7946 63.3398 13.3896 64.044 13.0013C64.8947 12.5313 65.8105 12.4603 66.6476 12.9257C69.0654 14.2661 71.4469 15.6714 73.8254 17.1191C72.1783 17.0601 70.4843 17.6057 68.9521 16.4466C68.1164 15.8135 67.1297 15.3828 66.229 14.8328C65.6745 14.4928 65.1682 14.4928 64.6106 14.8297C63.5121 15.4931 62.412 16.155 61.2756 16.7458C60.8102 16.9876 60.2556 17.1312 59.7313 17.172C58.8427 17.24 57.9451 17.1901 57.052 17.1901C57.04 17.1417 57.0279 17.0934 57.0173 17.045L57.0158 17.0465Z" fill="#A9A29D"/>
    <path d="M73.8419 38.9759C72.5273 39.7344 71.2111 40.493 69.8964 41.2501C68.896 41.8273 67.8972 42.4076 66.8938 42.9773C66.0264 43.4714 65.0744 43.5636 64.2222 43.0997C61.8029 41.782 59.4319 40.3782 57.0685 38.8686C58.2079 38.8686 59.3458 38.855 60.4837 38.8807C60.6892 38.8852 60.8992 39.0378 61.0926 39.1481C62.294 39.8281 63.4968 40.5066 64.6891 41.2033C65.221 41.5145 65.7151 41.5145 66.244 41.1942C67.1024 40.6728 68.006 40.2225 68.8371 39.6619C69.7695 39.0333 70.7426 38.719 71.8744 38.8338C72.5121 38.8988 73.1604 38.8459 73.8041 38.8459C73.8177 38.8882 73.8298 38.932 73.8434 38.9744L73.8419 38.9759Z" fill="#A9A29D"/>
</svg>