<svg width="37" height="54" viewBox="0 0 37 54" fill="none" xmlns="http://www.w3.org/2000/svg">
<g id="Group 11891">
<g id="Satoshi">
<path id="Vector" d="M34.2877 53.8721V45.1318H36V53.8721H34.2877ZM34.2877 43.7417V42.1278H36V43.7417H34.2877Z" fill="#E78D24"/>
<path id="Vector_2" d="M28.5999 53.8721V42.1278H30.3122V45.731C30.4592 45.5872 30.6767 45.4301 30.965 45.2596C31.2532 45.0892 31.5273 45.004 31.7872 45.004C32.0698 45.004 32.3072 45.0812 32.4993 45.2357C32.6915 45.3901 32.8356 45.5978 32.9316 45.8588C33.0277 46.1145 33.0758 46.3994 33.0758 46.7137V53.8721H31.3634V47.0492C31.3634 46.8895 31.3238 46.7616 31.2447 46.6658C31.1712 46.5646 31.0836 46.514 30.9819 46.514C30.8632 46.514 30.722 46.5779 30.5581 46.7057C30.3942 46.8282 30.3122 46.9667 30.3122 47.1211V53.8721H28.5999Z" fill="#E78D24"/>
<path id="Vector_3" d="M25.2009 54C24.7997 54 24.4493 53.9361 24.1497 53.8083C23.8502 53.6804 23.6016 53.4993 23.4038 53.265C23.206 53.0253 23.0562 52.743 22.9545 52.4181C22.8584 52.0932 22.8104 51.731 22.8104 51.3316H24.4041C24.4041 51.6884 24.4634 52 24.5821 52.2663C24.7064 52.5273 24.9127 52.6578 25.2009 52.6578C25.4496 52.6578 25.6106 52.5592 25.6841 52.3622C25.7576 52.1651 25.7943 51.9387 25.7943 51.6831C25.7943 51.3848 25.67 51.0812 25.4213 50.7723C25.1783 50.4581 24.924 50.1784 24.6584 49.9334C24.2006 49.5073 23.8191 49.0866 23.514 48.6711C23.2144 48.2557 23.0647 47.7683 23.0647 47.2091C23.0647 46.5486 23.2483 46.016 23.6157 45.6112C23.983 45.2064 24.5058 45.004 25.1839 45.004C25.5908 45.004 25.9328 45.0546 26.2097 45.1558C26.4922 45.257 26.7183 45.4088 26.8878 45.6112C27.0574 45.8136 27.1789 46.0613 27.2524 46.3542C27.3315 46.6471 27.371 46.9854 27.371 47.3688H25.7773C25.7773 47.0919 25.7463 46.8522 25.6841 46.6498C25.6219 46.4474 25.4665 46.3462 25.2179 46.3462C25.0144 46.3462 24.8703 46.4288 24.7855 46.5939C24.7008 46.7537 24.6584 46.9587 24.6584 47.2091C24.6584 47.502 24.7318 47.763 24.8788 47.992C25.0314 48.2157 25.2828 48.49 25.6332 48.8149C26.074 49.2197 26.4753 49.6511 26.837 50.1092C27.2043 50.5672 27.388 51.0652 27.388 51.6032C27.388 51.9547 27.3371 52.277 27.2354 52.5699C27.1393 52.8628 26.9952 53.1158 26.8031 53.3289C26.6166 53.5419 26.3877 53.7071 26.1164 53.8242C25.8508 53.9414 25.5456 54 25.2009 54Z" fill="#E78D24"/>
<path id="Vector_4" d="M19.403 53.984C18.7191 53.984 18.1823 53.7683 17.7923 53.3369C17.4024 52.9001 17.2074 52.3489 17.2074 51.6831V47.3049C17.2074 46.6391 17.4024 46.0905 17.7923 45.6591C18.1823 45.2224 18.7191 45.004 19.403 45.004C20.0811 45.004 20.6152 45.2224 21.0051 45.6591C21.4007 46.0905 21.5985 46.6391 21.5985 47.3049V51.6831C21.5985 52.3489 21.4007 52.9001 21.0051 53.3369C20.6152 53.7683 20.0811 53.984 19.403 53.984ZM19.403 52.5779C19.6234 52.5779 19.776 52.4953 19.8607 52.3302C19.9455 52.1598 19.9879 51.9441 19.9879 51.6831V47.3049C19.9879 47.0386 19.9455 46.8229 19.8607 46.6578C19.776 46.4927 19.6234 46.4101 19.403 46.4101C19.1826 46.4101 19.03 46.4927 18.9452 46.6578C18.8604 46.8229 18.818 47.0386 18.818 47.3049V51.6831C18.818 51.9494 18.8604 52.1651 18.9452 52.3302C19.03 52.4953 19.1826 52.5779 19.403 52.5779Z" fill="#E78D24"/>
<path id="Vector_5" d="M15.0715 54C14.5346 54 14.1249 53.8881 13.8423 53.6644C13.5598 53.4407 13.3648 53.1212 13.2574 52.7057C13.1557 52.2903 13.1048 51.7949 13.1048 51.2197V46.5859H12.2402V45.1318H13.1048V42.9747H14.8172V45.1318H15.9955V46.5859H14.8172V51.4514C14.8172 51.7923 14.8709 52.0453 14.9783 52.2104C15.0856 52.3702 15.2608 52.4501 15.5039 52.4501C15.6112 52.4501 15.7045 52.4421 15.7836 52.4261C15.8684 52.4101 15.9362 52.3915 15.987 52.3702V53.8482C15.874 53.8908 15.7497 53.9254 15.6141 53.9521C15.4841 53.984 15.3032 54 15.0715 54Z" fill="#E78D24"/>
<path id="Vector_6" d="M7.79009 54C7.39449 54 7.05258 53.8109 6.76436 53.4328C6.47614 53.0546 6.33203 52.4767 6.33203 51.6991C6.33203 50.9481 6.50157 50.3435 6.84066 49.8855C7.18539 49.4274 7.69967 49.0306 8.38349 48.6951C8.59824 48.5885 8.77908 48.4927 8.92602 48.4075C9.07296 48.3222 9.16338 48.2423 9.19729 48.1678V47.2091C9.19729 46.9907 9.16903 46.8043 9.11252 46.6498C9.06165 46.49 8.93167 46.4101 8.72257 46.4101C8.53042 46.4101 8.40044 46.4953 8.33262 46.6658C8.26481 46.8309 8.2309 47.0386 8.2309 47.2889V47.7044H6.51853V47.3369C6.51853 46.8575 6.61743 46.4447 6.81523 46.0985C7.01868 45.747 7.29277 45.478 7.6375 45.2916C7.98789 45.0999 8.38349 45.004 8.8243 45.004C9.24815 45.004 9.61549 45.0972 9.92632 45.2836C10.2371 45.4647 10.4773 45.7177 10.6469 46.0426C10.8221 46.3622 10.9097 46.7297 10.9097 47.1451V52.3542C10.9097 52.743 10.921 53.0466 10.9436 53.265C10.9662 53.478 10.9944 53.6804 11.0283 53.8722H9.34987C9.27641 53.7869 9.2312 53.6618 9.21424 53.4967C9.20294 53.3316 9.19729 53.2224 9.19729 53.1691H9.07861C8.93732 53.4141 8.75648 53.6138 8.53607 53.7683C8.32132 53.9228 8.07266 54 7.79009 54ZM8.48521 52.4181C8.68301 52.4181 8.84973 52.3542 8.98536 52.2264C9.12665 52.0985 9.19729 51.9601 9.19729 51.8109V49.7337C8.78474 49.8988 8.48239 50.1491 8.29024 50.4847C8.10374 50.8149 8.01049 51.1877 8.01049 51.6032C8.01049 51.7843 8.04723 51.9654 8.1207 52.1465C8.19416 52.3276 8.31567 52.4181 8.48521 52.4181Z" fill="#E78D24"/>
<path id="Vector_7" d="M2.57703 54C2.07406 54 1.65586 53.9228 1.32243 53.7683C0.988994 53.6085 0.726204 53.3795 0.534057 53.0812C0.341909 52.7829 0.20345 52.4234 0.118679 52.0027C0.0395597 51.5819 0 51.1078 0 50.5806L1.79714 50.4208C1.79714 50.6764 1.80562 50.9241 1.82257 51.1638C1.84518 51.3981 1.88191 51.6112 1.93278 51.8029C1.98929 51.9893 2.06841 52.1385 2.17013 52.2503C2.27751 52.3622 2.41314 52.4181 2.57703 52.4181C2.8483 52.4181 3.04045 52.3009 3.15348 52.0666C3.26651 51.8269 3.32302 51.5393 3.32302 51.2037C3.32302 50.8682 3.22977 50.5193 3.04327 50.1571C2.85678 49.7949 2.63355 49.4514 2.37358 49.1265C1.93278 48.5726 1.54566 48.0586 1.21222 47.5845C0.884443 47.1105 0.627304 46.6445 0.440809 46.1864C0.259964 45.7284 0.169542 45.249 0.169542 44.7483C0.169542 44.3542 0.22323 43.992 0.330606 43.6618C0.437983 43.3262 0.593396 43.036 0.796846 42.7909C1.00595 42.5406 1.25743 42.3462 1.55131 42.2077C1.84518 42.0692 2.18144 42 2.56008 42C3.02915 42 3.42474 42.0746 3.74687 42.2237C4.07465 42.3728 4.33744 42.5859 4.53524 42.8628C4.73869 43.1398 4.88563 43.47 4.97605 43.8535C5.07212 44.2317 5.12016 44.6525 5.12016 45.1158L3.32302 45.2756C3.32302 45.0786 3.31172 44.8815 3.28911 44.6844C3.27216 44.482 3.23825 44.2983 3.18739 44.1332C3.13652 43.968 3.06305 43.8349 2.96698 43.7337C2.87091 43.6325 2.74658 43.5819 2.59399 43.5819C2.35663 43.5819 2.19274 43.6778 2.10232 43.8695C2.0119 44.0559 1.96668 44.3222 1.96668 44.6684C1.96668 45.1158 2.09384 45.5473 2.34815 45.9627C2.60247 46.3782 2.94438 46.8628 3.37388 47.4168C3.88816 48.0719 4.30636 48.6738 4.62849 49.2224C4.95627 49.771 5.12016 50.3782 5.12016 51.0439C5.12016 51.4647 5.07212 51.8562 4.97605 52.2184C4.87998 52.5752 4.72739 52.8868 4.51829 53.1531C4.31484 53.4194 4.05205 53.6272 3.72992 53.7763C3.41344 53.9254 3.02915 54 2.57703 54Z" fill="#E78D24"/>
</g>
<path id="Vector_8" d="M36.6249 11.0297L25.9719 0.375083L25.5968 0H12.4048L12.0297 0.375083L1.37508 11.0297L1 11.4048V24.5952L1.37508 24.9703L12.0297 35.6249L12.4048 36H25.5952L25.9703 35.6249L36.6249 24.9703L37 24.5952V11.4048L36.6249 11.0297ZM12.937 1.28234H18.4334V9.13825H19.5666V1.28234H25.063C26.6564 2.87564 26.2797 2.49895 27.8617 4.08104V9.13825H28.6231L30.7069 11.222C28.2416 11.222 25.1336 11.222 22.6715 11.222V9.13825H25.7764V4.94341L24.1991 3.36613H21.6488V15.3496H24.8354V17.4334H19.565V11.2204C18.1689 11.2204 14.4565 11.2204 13.2672 11.2204V9.13665H16.3464V3.36613H13.7961C12.0794 5.08286 10.7329 6.42932 9.08353 8.07872H6.13736C6.95164 7.26444 12.1932 2.02289 12.9337 1.28234H12.937ZM9.07872 30.861C8.26444 30.0468 3.02289 24.8052 2.28234 24.0647V18.5682H10.1383V17.435H2.28234V11.937C3.87404 10.3436 3.49895 10.7203 5.08104 9.13825H10.1383V8.37686L12.222 6.29307V14.3285H10.1383V11.2237H5.94341L4.36613 12.8009V15.3512H16.3496V12.1646H18.4334V17.435H12.222V23.7328H10.1383V20.6536H4.36613V23.2039C6.08286 24.9206 7.42932 26.2671 9.07872 27.9165V30.8626V30.861ZM25.0647 34.7193H19.5682V26.8633H18.435V34.7193H12.9386C11.3453 33.1276 11.7219 33.5027 10.1399 31.9206V26.8633H9.37847L7.29467 24.7796C9.75996 24.7796 12.868 24.7796 15.3301 24.7796V26.8633H12.2253V31.0566L13.8025 32.6355H16.3528V20.652H13.1662V18.5682H18.4366V24.7812C19.8327 24.7812 23.5451 24.7812 24.7345 24.7812V26.865H21.6552V32.6371H24.2055C25.9222 30.9203 27.2687 29.5739 28.9181 27.9245H31.8642C31.05 28.7388 25.8084 33.9803 25.0679 34.7209L25.0647 34.7193ZM35.7193 17.435H27.8633V18.5682H35.7193V24.0647C34.1276 25.658 34.5027 25.2813 32.9206 26.8633H27.8633V27.6247L25.7796 29.7085V21.6731H27.8633V24.778H32.0566L33.6339 23.1991V20.6488H21.6504V23.8354H19.5666V18.565H25.778V12.2672H27.8617V15.3464H33.6339V12.7961C31.9171 11.0794 30.5707 9.73294 28.9213 8.08353V5.13736C29.7356 5.95164 34.9771 11.1932 35.7177 11.9337V17.4318L35.7193 17.435Z" fill="#E78D24"/>
</g>
</svg>
